<?xml version="1.0" standalone="no"?>
<!DOCTYPE svg PUBLIC "-//W3C//DTD SVG 20010904//EN"
 "http://www.w3.org/TR/2001/REC-SVG-20010904/DTD/svg10.dtd">
<svg version="1.0" xmlns="http://www.w3.org/2000/svg"
 width="641.000000pt" height="641.000000pt" viewBox="0 0 641.000000 641.000000"
 preserveAspectRatio="xMidYMid meet">
<metadata>
Created by potrace 1.11, written by Peter Selinger 2001-2013
</metadata>
<g transform="translate(0.000000,641.000000) scale(0.100000,-0.100000)"
fill="#000000" stroke="none">
<path d="M3813 6367 c-6 -7 -17 -30 -26 -53 l-15 -41 71 -34 c171 -81 371
-241 506 -404 48 -58 120 -162 189 -270 70 -112 193 -410 236 -574 14 -51 27
-95 29 -97 5 -5 96 12 104 20 14 14 -51 235 -117 401 -177 445 -493 822 -835
998 -120 62 -133 67 -142 54z"/>
<path d="M2447 6030 c-89 -28 -165 -93 -203 -175 -47 -100 -25 -255 58 -392
34 -56 406 -556 602 -808 167 -214 541 -695 634 -813 85 -109 98 -145 69 -183
-28 -36 -88 -50 -127 -29 -11 6 -95 99 -187 208 -92 108 -197 231 -233 273
-36 41 -86 100 -111 130 -26 29 -133 155 -239 279 -211 247 -211 247 -290 340
-30 36 -67 78 -81 95 -29 32 -431 504 -489 574 -94 111 -243 200 -353 208
-175 14 -340 -96 -382 -255 -26 -102 -2 -189 88 -315 121 -168 495 -627 911
-1117 77 -91 162 -192 190 -225 28 -33 53 -62 56 -65 3 -3 41 -48 85 -100 44
-52 82 -97 85 -100 3 -3 46 -52 95 -110 50 -58 92 -107 95 -110 3 -3 30 -34
60 -70 30 -36 57 -67 60 -70 6 -6 120 -137 148 -170 11 -14 30 -36 42 -49 44
-52 36 -106 -21 -140 -52 -32 -90 -16 -158 63 -24 28 -60 69 -80 91 -20 22
-101 112 -181 200 -79 88 -166 183 -191 210 -26 28 -58 62 -71 76 -68 75 -217
237 -243 264 -16 18 -75 81 -130 141 -55 59 -130 140 -166 179 -36 38 -111
120 -167 180 -128 138 -197 196 -294 245 -94 47 -171 64 -259 58 -125 -9 -262
-96 -310 -196 -17 -35 -22 -63 -22 -121 0 -161 74 -277 396 -625 16 -17 54
-58 85 -91 30 -33 115 -123 187 -200 73 -77 147 -156 165 -175 74 -80 843
-872 916 -945 90 -88 117 -158 72 -189 -27 -19 -55 -20 -84 -3 -12 7 -100 87
-195 178 -164 156 -275 261 -344 324 -16 15 -68 62 -115 104 -47 43 -121 111
-165 151 -178 161 -254 213 -350 235 -138 31 -269 -27 -343 -154 -42 -71 -38
-146 11 -233 89 -159 243 -337 582 -675 223 -222 385 -377 585 -559 155 -142
583 -518 780 -685 30 -26 125 -106 210 -179 263 -223 427 -326 630 -394 175
-58 297 -76 500 -72 96 2 189 7 205 10 17 4 66 14 110 22 119 24 335 98 464
161 506 244 851 592 1037 1044 55 136 96 277 128 445 5 24 13 83 25 194 10 81
7 460 -4 550 -4 30 -18 114 -32 185 -39 207 -61 336 -68 400 -4 33 -9 74 -11
90 -2 17 -6 145 -8 285 -7 406 19 591 121 865 14 39 58 138 97 220 71 149 71
150 71 235 0 74 -3 90 -25 122 -62 91 -228 155 -380 145 -307 -20 -594 -240
-688 -527 -29 -89 -32 -112 -31 -210 5 -239 3 -274 -20 -343 -28 -88 -56 -131
-123 -193 -174 -158 -368 -167 -522 -24 -79 74 -550 670 -1231 1559 -376 491
-419 545 -476 600 -145 140 -309 195 -452 151z"/>
<path d="M3485 5907 c-10 -23 -19 -47 -22 -54 -3 -6 38 -32 99 -61 195 -94
362 -242 478 -422 98 -154 173 -358 195 -533 l7 -57 58 0 58 0 -3 38 c-10 118
-69 317 -133 452 -38 78 -117 218 -131 230 -3 3 -24 27 -46 55 -119 149 -271
267 -447 349 l-96 45 -17 -42z"/>
<path d="M577 2370 c-20 -4 -39 -9 -42 -12 -11 -11 60 -208 115 -317 146 -290
352 -500 611 -624 80 -38 242 -97 268 -97 9 0 34 100 27 107 -3 3 -51 20 -107
39 -318 107 -560 328 -710 650 -38 80 -89 225 -89 251 0 14 -15 15 -73 3z"/>
<path d="M53 2181 c-23 -9 -44 -19 -48 -22 -19 -19 149 -364 252 -519 254
-381 546 -624 908 -755 53 -19 100 -35 105 -35 5 0 14 18 20 41 6 22 13 46 16
53 3 9 -25 23 -88 45 -441 153 -825 546 -1058 1082 -27 61 -52 115 -57 119 -4
4 -27 0 -50 -9z"/>
</g>
</svg>
